REM DIRINDEX 1\2\3,1\2\4,1\2\5,1\2\6
REM DIRNAME folder01,folder02,folder03,folder04,folder05,folder06
TITLE ""
FILE "112 112.mp3" MP3
  TRACK 01 AUDIO
    TITLE "0:"
    INDEX 01 00:00:00
  TRACK 02 AUDIO
    TITLE "3:cjc157_4153"
    INDEX 01 00:00:09
  TRACK 03 AUDIO
    TITLE "0:"
    INDEX 01 00:01:32
  TRACK 04 AUDIO
    TITLE "4:cjc157_4154"
    INDEX 01 00:02:04
  TRACK 05 AUDIO
    TITLE "0:"
    INDEX 01 00:03:14
  TRACK 06 AUDIO
    TITLE "5:cjc157_4155"
    INDEX 01 00:03:63
  TRACK 07 AUDIO
    TITLE "0:"
    INDEX 01 00:06:04
  TRACK 08 AUDIO
    TITLE "5:cjc157_4156"
    INDEX 01 00:06:51
  TRACK 09 AUDIO
    TITLE "0:"
    INDEX 01 00:08:32
  TRACK 10 AUDIO
    TITLE "3:cjc157_4157"
    INDEX 01 00:09:00
  TRACK 11 AUDIO
    TITLE "0:"
    INDEX 01 00:10:25
  TRACK 12 AUDIO
    TITLE "4:cjc157_4158"
    INDEX 01 00:10:68
  TRACK 13 AUDIO
    TITLE "0:"
    INDEX 01 00:12:01
  TRACK 14 AUDIO
    TITLE "5:cjc157_4159"
    INDEX 01 00:12:48
  TRACK 15 AUDIO
    TITLE "0:"
    INDEX 01 00:14:56
  TRACK 16 AUDIO
    TITLE "3:cjc157_4160"
    INDEX 01 00:15:30
  TRACK 17 AUDIO
    TITLE "0:"
    INDEX 01 00:16:48
  TRACK 18 AUDIO
    TITLE "4:cjc157_4161"
    INDEX 01 00:17:14
  TRACK 19 AUDIO
    TITLE "0:"
    INDEX 01 00:18:25
  TRACK 20 AUDIO
    TITLE "5:cjc157_4162"
    INDEX 01 00:18:72
  TRACK 21 AUDIO
    TITLE "0:"
    INDEX 01 00:21:27
  TRACK 22 AUDIO
    TITLE "5:cjc157_4163"
    INDEX 01 00:22:01
  TRACK 23 AUDIO
    TITLE "0:"
    INDEX 01 00:24:16
  TRACK 24 AUDIO
    TITLE "3:cjc157_4164"
    INDEX 01 00:24:61
  TRACK 25 AUDIO
    TITLE "0:"
    INDEX 01 00:25:74
  TRACK 26 AUDIO
    TITLE "4:cjc157_4165"
    INDEX 01 00:26:42
  TRACK 27 AUDIO
    TITLE "0:"
    INDEX 01 00:28:06
  TRACK 28 AUDIO
    TITLE "5:cjc157_4166"
    INDEX 01 00:28:51
  TRACK 29 AUDIO
    TITLE "0:"
    INDEX 01 00:30:73
  TRACK 30 AUDIO
    TITLE "5:cjc157_4167"
    INDEX 01 00:31:45
  TRACK 31 AUDIO
    TITLE "0:"
    INDEX 01 00:34:00
  TRACK 32 AUDIO
    TITLE "3:cjc157_4168"
    INDEX 01 00:34:42
  TRACK 33 AUDIO
    TITLE "0:"
    INDEX 01 00:35:66
  TRACK 34 AUDIO
    TITLE "4:cjc157_4169"
    INDEX 01 00:36:36
  TRACK 35 AUDIO
    TITLE "0:"
    INDEX 01 00:37:50
  TRACK 36 AUDIO
    TITLE "5:cjc157_4170"
    INDEX 01 00:38:18
  TRACK 37 AUDIO
    TITLE "0:"
    INDEX 01 00:40:44
  TRACK 38 AUDIO
    TITLE "5:cjc157_4171"
    INDEX 01 00:41:18
  TRACK 39 AUDIO
    TITLE "0:"
    INDEX 01 00:43:66
  TRACK 40 AUDIO
    TITLE "5:cjc157_4172"
    INDEX 01 00:44:38
  TRACK 41 AUDIO
    TITLE "0:"
    INDEX 01 00:45:55
  TRACK 42 AUDIO
    TITLE "3:cjc157_4173"
    INDEX 01 00:46:25
  TRACK 43 AUDIO
    TITLE "0:"
    INDEX 01 00:47:38
  TRACK 44 AUDIO
    TITLE "4:cjc157_4174"
    INDEX 01 00:48:06
  TRACK 45 AUDIO
    TITLE "0:"
    INDEX 01 00:49:29
  TRACK 46 AUDIO
    TITLE "5:cjc157_4175"
    INDEX 01 00:49:72
  TRACK 47 AUDIO
    TITLE "0:"
    INDEX 01 00:52:37
  TRACK 48 AUDIO
    TITLE "3:cjc157_4176"
    INDEX 01 00:53:08
  TRACK 49 AUDIO
    TITLE "0:"
    INDEX 01 00:54:52
  TRACK 50 AUDIO
    TITLE "4:cjc157_4177"
    INDEX 01 00:55:28
  TRACK 51 AUDIO
    TITLE "0:"
    INDEX 01 00:56:33
  TRACK 52 AUDIO
    TITLE "5:cjc157_4178"
    INDEX 01 00:57:07
  TRACK 53 AUDIO
    TITLE "0:"
    INDEX 01 00:59:53
  TRACK 54 AUDIO
    TITLE "3:cjc157_4179"
    INDEX 01 01:00:31
  TRACK 55 AUDIO
    TITLE "0:"
    INDEX 01 01:01:34
  TRACK 56 AUDIO
    TITLE "4:cjc157_4180"
    INDEX 01 01:02:06
  TRACK 57 AUDIO
    TITLE "0:"
    INDEX 01 01:03:14
  TRACK 58 AUDIO
    TITLE "5:cjc157_4181"
    INDEX 01 01:03:59
  TRACK 59 AUDIO
    TITLE "0:"
    INDEX 01 01:06:00
  TRACK 60 AUDIO
    TITLE "5:cjc157_4182"
    INDEX 01 01:06:45
  TRACK 61 AUDIO
    TITLE "0:"
    INDEX 01 01:08:23
  TRACK 62 AUDIO
    TITLE "5:cjc157_4183"
    INDEX 01 01:08:68
  TRACK 63 AUDIO
    TITLE "0:"
    INDEX 01 01:11:43
  TRACK 64 AUDIO
    TITLE "3:cjc157_4184"
    INDEX 01 01:12:13
  TRACK 65 AUDIO
    TITLE "0:"
    INDEX 01 01:13:16
  TRACK 66 AUDIO
    TITLE "4:cjc157_4185"
    INDEX 01 01:13:59
  TRACK 67 AUDIO
    TITLE "0:"
    INDEX 01 01:14:66
  TRACK 68 AUDIO
    TITLE "5:cjc157_4186"
    INDEX 01 01:15:40
  TRACK 69 AUDIO
    TITLE "0:"
    INDEX 01 01:17:28
  TRACK 70 AUDIO
    TITLE "5:cjc157_4187"
    INDEX 01 01:18:00
  TRACK 71 AUDIO
    TITLE "0:"
    INDEX 01 01:20:02
  TRACK 72 AUDIO
    TITLE "3:cjc157_4188"
    INDEX 01 01:20:48
  TRACK 73 AUDIO
    TITLE "0:"
    INDEX 01 01:21:65
  TRACK 74 AUDIO
    TITLE "4:cjc157_4189"
    INDEX 01 01:22:42
  TRACK 75 AUDIO
    TITLE "0:"
    INDEX 01 01:23:44
  TRACK 76 AUDIO
    TITLE "5:cjc157_4190"
    INDEX 01 01:24:28
  TRACK 77 AUDIO
    TITLE "0:"
    INDEX 01 01:25:39
  TRACK 78 AUDIO
    TITLE "5:cjc157_4191"
    INDEX 01 01:26:29
  TRACK 79 AUDIO
    TITLE "0:"
    INDEX 01 01:28:51
